<?xml version="1.0" encoding="utf-8"?>
<svg version="1.1" xmlns:xlink="http://www.w3.org/1999/xlink" width="900px" height="170px" xmlns="http://www.w3.org/2000/svg">
  <g transform="matrix(1 0 0 1 0 -1 )">
    <path d="M 0 1  L 900 1  L 900 171  L 0 171  L 0 1  " fill-rule="nonzero" fill="#cccccc" stroke="none" />
    <path d="M 12 13  L 888 13  L 888 159  L 12 159  L 12 13  " fill-rule="nonzero" fill="#ffffff" stroke="none" />
    <path d="M 480.75 52  C 473.61 52  468 46.39  468 39.25  C 468 32.11  473.61 26.5  480.75 26.5  C 487.89 26.5  493.5 32.11  493.5 39.25  C 493.5 46.39  487.89 52  480.75 52  " fill-rule="nonzero" fill="#cccccc" stroke="none" />
    <path d="M 17 155  L 17 79.65  L 233.75 45.4  L 537.2 139.473333333333  L 710.6 65.95  L 884 139.473333333333  L 884 155  L 17 155  " fill-rule="nonzero" fill="#169bd5" stroke="none" />
  </g>
</svg>