<?xml version="1.0" encoding="utf-8"?>
<svg version="1.1" xmlns:xlink="http://www.w3.org/1999/xlink" width="905px" height="170px" xmlns="http://www.w3.org/2000/svg">
  <g>
    <path d="M 0 0  L 905 0  L 905 170  L 0 170  L 0 0  " fill-rule="nonzero" fill="#cccccc" stroke="none" />
    <path d="M 12 12  L 893 12  L 893 158  L 12 158  L 12 12  " fill-rule="nonzero" fill="#ffffff" stroke="none" />
    <path d="M 483.35 51  C 476.21 51  470.6 45.39  470.6 38.25  C 470.6 31.11  476.21 25.5  483.35 25.5  C 490.49 25.5  496.1 31.11  496.1 38.25  C 496.1 45.39  490.49 51  483.35 51  " fill-rule="nonzero" fill="#cccccc" stroke="none" />
    <path d="M 17 154  L 17 78.65  L 235 44.4  L 540.2 138.559116022099  L 714.6 64.95  L 889 138.559116022099  L 889 154  L 17 154  " fill-rule="nonzero" fill="#169bd5" stroke="none" />
  </g>
</svg>