<?xml version="1.0" encoding="utf-8"?>
<svg version="1.1" xmlns:xlink="http://www.w3.org/1999/xlink" width="809px" height="170px" xmlns="http://www.w3.org/2000/svg">
  <g>
    <path d="M 0 0  L 809 0  L 809 170  L 0 170  L 0 0  " fill-rule="nonzero" fill="#cccccc" stroke="none" />
    <path d="M 12 12  L 797 12  L 797 158  L 12 158  L 12 12  " fill-rule="nonzero" fill="#ffffff" stroke="none" />
    <path d="M 433.43 51  C 426.29 51  420.68 45.39  420.68 38.25  C 420.68 31.11  426.29 25.5  433.43 25.5  C 440.57 25.5  446.18 31.11  446.18 38.25  C 446.18 45.39  440.57 51  433.43 51  " fill-rule="nonzero" fill="#cccccc" stroke="none" />
    <path d="M 17 154  L 17 78.65  L 211 44.4  L 482.6 136.726823238566  L 637.8 64.95  L 793 136.726823238566  L 793 154  L 17 154  " fill-rule="nonzero" fill="#169bd5" stroke="none" />
  </g>
</svg>