<?xml version="1.0" encoding="utf-8"?>
<svg version="1.1" xmlns:xlink="http://www.w3.org/1999/xlink" width="845px" height="170px" xmlns="http://www.w3.org/2000/svg">
  <g>
    <path d="M 0 0  L 845 0  L 845 170  L 0 170  L 0 0  " fill-rule="nonzero" fill="#cccccc" stroke="none" />
    <path d="M 12 12  L 833 12  L 833 158  L 12 158  L 12 12  " fill-rule="nonzero" fill="#ffffff" stroke="none" />
    <path d="M 452.15 51  C 445.01 51  439.4 45.39  439.4 38.25  C 439.4 31.11  445.01 25.5  452.15 25.5  C 459.29 25.5  464.9 31.11  464.9 38.25  C 464.9 45.39  459.29 51  452.15 51  " fill-rule="nonzero" fill="#cccccc" stroke="none" />
    <path d="M 17 154  L 17 78.65  L 220 44.4  L 504.2 137.462721893491  L 666.6 64.95  L 829 137.462721893491  L 829 154  L 17 154  " fill-rule="nonzero" fill="#169bd5" stroke="none" />
  </g>
</svg>