<?xml version="1.0" encoding="utf-8"?>
<svg version="1.1" xmlns:xlink="http://www.w3.org/1999/xlink" width="912px" height="170px" xmlns="http://www.w3.org/2000/svg">
  <g>
    <path d="M 0 0  L 912 0  L 912 170  L 0 170  L 0 0  " fill-rule="nonzero" fill="#cccccc" stroke="none" />
    <path d="M 12 12  L 900 12  L 900 158  L 12 158  L 12 12  " fill-rule="nonzero" fill="#ffffff" stroke="none" />
    <path d="M 486.99 51  C 479.85 51  474.24 45.39  474.24 38.25  C 474.24 31.11  479.85 25.5  486.99 25.5  C 494.13 25.5  499.74 31.11  499.74 38.25  C 499.74 45.39  494.13 51  486.99 51  " fill-rule="nonzero" fill="#cccccc" stroke="none" />
    <path d="M 17 154  L 17 78.65  L 236.75 44.4  L 544.4 138.677631578947  L 720.2 64.95  L 896 138.677631578947  L 896 154  L 17 154  " fill-rule="nonzero" fill="#169bd5" stroke="none" />
  </g>
</svg>